PathFileType	4	(X/Y/Z)	E:\Qualisys_Data\Carbon_Farble_Plate\Data\Amateur_Runner\S1\T1\S1T1V12_c3d.trc
DataRate	CameraRate	NumFrames	NumMarkers	Units	OrigDataRate	OrigDataStartFrame	OrigNumFrames
200.000000	200.000000	4	39	mm	200.000000	195	312
Frame#	Time	LSHO			RSHO			LICST			RICST			LASIS			LHEEL			RASIS			LTROC			RTROC			SACR			LTH1			LSK4			LTH2			LTH3			RHM5			LSK2			LTH4			RTH1			LTOE			RTH2			RTH3			RTH4			LLEP			RLEP			LSK1			LSK3			RSK1			LHM5			RSK2			LFT1			RSK3			RSK4			LLME			RLME			RTOE			RHEEL			RFT1			RFT2			LFT2			
		X1	Y1	Z1	X2	Y2	Z2	X3	Y3	Z3	X4	Y4	Z4	X5	Y5	Z5	X6	Y6	Z6	X7	Y7	Z7	X8	Y8	Z8	X9	Y9	Z9	X10	Y10	Z10	X11	Y11	Z11	X12	Y12	Z12	X13	Y13	Z13	X14	Y14	Z14	X15	Y15	Z15	X16	Y16	Z16	X17	Y17	Z17	X18	Y18	Z18	X19	Y19	Z19	X20	Y20	Z20	X21	Y21	Z21	X22	Y22	Z22	X23	Y23	Z23	X24	Y24	Z24	X25	Y25	Z25	X26	Y26	Z26	X27	Y27	Z27	X28	Y28	Z28	X29	Y29	Z29	X30	Y30	Z30	X31	Y31	Z31	X32	Y32	Z32	X33	Y33	Z33	X34	Y34	Z34	X35	Y35	Z35	X36	Y36	Z36	X37	Y37	Z37	X38	Y38	Z38	X39	Y39	Z39	

196	0.975	734.5529174804688	1504.645751953125	-476.3000183105469	763.63525390625	1481.595703125	-149.5653228759766	698.4136352539062	1031.4697265625	-448.2241516113281	710.2379760742188	1046.646606445312	-150.3312683105469	743.3204345703125	992.7846069335938	-422.030029296875	506.2144165039062	299.0656433105469	-348.2174377441406	745.9885864257812	996.9295654296876	-156.8054046630859	648.7610473632812	906.384033203125	-468.5431518554688	626.93310546875	917.092529296875	-130.9767303466797	586.0799560546875	1056.601806640625	-293.1097717285156	826.5618286132812	817.3324584960938	-440.5281372070312	625.7080078125	405.7482604980469	-381.2154235839844	758.3037719726562	775.1560668945312	-471.5213623046875	876.4025268554688	726.2461547851562	-433.708251953125	502.5071105957031	53.7830810546875	-146.198486328125	700.7061157226562	467.4083862304688	-418.0831604003906	802.8819580078125	685.8923950195312	-454.0000305175781	735.0344848632812	772.1636962890625	-150.7311706542969	696.1591796875	127.5042037963867	-349.9562072753906	660.8130493164062	781.6686401367188	-120.6521911621094	718.2306518554688	671.931884765625	-159.2873840332031	640.7333984375	684.9742431640625	-136.7896728515625	886.1320190429688	560.779052734375	-421.7154541015625	634.9241943359375	512.5213623046875	-177.9747161865234	751.528076171875	400.6826782226562	-415.7247009277344	668.5631103515625	343.7272338867188	-407.6871337890625	548.5159301757812	342.6785888671875	-160.1178894042969	634.3990478515625	154.8661499023438	-409.0779113769531	476.9010314941406	380.2420654296875	-165.4068603515625	500.6621704101562	273.255615234375	-317.7634887695312	503.2902526855469	253.2862701416016	-169.7900238037109	433.2805786132812	292.3299865722656	-187.4133453369141	560.9287719726562	283.8763427734375	-395.7908630371094	411.1949157714844	155.4466400146484	-167.1566009521484	572.0185546875	51.90602874755859	-227.5781707763672	332.1708068847656	134.0424652099609	-205.9980773925781	334.5457763671875	104.4323501586914	-237.5329284667969	331.150146484375	109.2019653320312	-179.8842468261719	490.890869140625	273.5919799804688	-370.9226989746094
197	0.98	747.81298828125	1508.244873046875	-477.5804748535156	780.8237915039062	1486.399291992188	-151.6249237060547	715.2853393554688	1035.825805664062	-448.8250732421875	727.3793334960938	1049.76318359375	-151.2697906494141	759.9078369140625	997.4553833007812	-422.6982727050781	534.16748046875	288.4427795410156	-349.0242919921875	763.014892578125	999.7628173828124	-157.8250274658203	666.3173217773438	910.8280029296876	-469.5522155761719	642.9561157226562	920.738037109375	-132.4510192871094	603.1650390625	1060.179077148438	-294.1098022460938	844.40966796875	823.0515747070312	-440.1474609375	649.555419921875	400.1571044921875	-381.620361328125	776.3673095703125	780.5776977539062	-471.8447875976562	894.1959228515625	731.9317016601562	-433.1076049804688	503.3132934570312	54.85249710083008	-146.3288116455078	721.9099731445312	464.5093994140625	-418.2271118164062	821.5907592773438	691.413330078125	-454.5655212402344	748.1153564453125	774.2791748046875	-151.9617156982422	731.0435180664062	124.8404693603516	-352.013916015625	674.1067504882812	785.2239379882812	-121.8887176513672	729.148193359375	674.9305419921875	-160.5401763916016	651.4873046875	689.3977661132812	-138.02392578125	904.7487182617188	565.6646728515625	-420.9625549316406	642.3134155273438	517.389404296875	-178.2711486816406	775.8162231445312	400.5139770507812	-416.0897521972656	695.1683959960938	339.7850952148438	-408.2277526855469	553.8668212890625	348.0801696777344	-160.0840606689453	669.1355590820312	150.0829620361328	-410.0896301269531	482.2906494140625	386.3302917480469	-166.4918670654297	527.7730102539062	262.8471069335938	-319.23291015625	507.7761535644531	259.1553649902344	-169.4997863769531	438.4233703613281	298.0895385742188	-188.199951171875	590.1846923828125	275.5023193359375	-396.7579956054688	415.8061828613281	161.0428161621094	-167.1994323730469	573.1019897460938	51.78976058959961	-227.3512420654297	336.4046020507812	140.5295867919922	-207.0792083740234	338.0684509277344	110.5743789672852	-238.3790435791016	334.6851196289062	115.6982345581055	-180.7321929931641	519.5263061523438	262.6936340332031	-372.0142517089844
198	0.985	761.2464599609375	1511.461791992188	-479.0414123535156	797.6806030273438	1491.354614257812	-153.4907989501953	732.054931640625	1040.22998046875	-449.861328125	744.7015991210938	1052.690795898438	-152.0012512207031	776.3865966796875	1001.395446777344	-423.8213500976562	563.1649780273438	277.7198181152344	-349.5255126953125	779.9602661132812	1002.299255371094	-159.0068817138672	683.3607177734375	915.5140991210938	-470.894775390625	658.9994506835938	924.71435546875	-133.3493347167969	620.9551391601562	1065.29345703125	-293.6479187011719	861.9551391601562	828.3176879882812	-439.8260498046875	673.556396484375	394.1977844238281	-382.1774291992188	794.3076782226562	785.6463623046875	-472.4533996582031	912.4033203125	737.5557250976562	-432.5082397460938	504.1871643066406	55.65881729125977	-146.50341796875	743.3652954101562	461.7986145019531	-418.9464111328125	839.8680419921875	696.8916015625	-455.1819458007812	761.248779296875	776.9447021484375	-152.6607666015625	766.6293334960938	122.859260559082	-353.4034423828125	687.3796997070312	789.57470703125	-122.3296661376953	740.1686401367188	677.8154907226562	-161.6283111572266	662.977783203125	693.5897827148438	-139.1440582275391	922.6802368164062	570.350341796875	-420.47216796875	650.167724609375	522.3850708007812	-178.1373443603516	799.967529296875	399.8280944824219	-416.213134765625	722.0684814453125	335.90966796875	-408.5219116210938	559.5352783203125	353.8440246582031	-159.7980194091797	703.5588989257812	145.4993286132812	-411.5576782226562	488.3961791992188	392.1454467773438	-166.9915161132812	557.5496826171875	252.2465667724609	-320.0780944824219	513.3145751953125	264.8782043457031	-168.7960357666016	444.5221557617188	304.0702209472656	-188.5260162353516	619.3275756835938	267.3197631835938	-397.1423034667969	420.4334106445312	166.1645050048828	-166.9669036865234	574.0040893554688	51.63129425048828	-227.2090301513672	340.9479370117188	147.0091400146484	-207.8799591064453	341.8479614257812	117.7170791625977	-240.1307067871094	338.3978576660156	122.5381469726562	-181.4302215576172	550.4059448242188	251.3409118652344	-372.619140625
199	0.99	775.29052734375	1514.678833007812	-480.3230285644531	814.448486328125	1496.03515625	-155.43408203125	748.5804443359375	1044.754272460938	-450.371337890625	762.181884765625	1055.409423828125	-153.1238250732422	792.789306640625	1005.667663574219	-425.0277099609375	592.5838623046875	267.2440185546875	-350.3692932128906	797.090087890625	1004.925720214844	-160.3803253173828	700.5303344726562	920.111083984375	-471.9529724121094	675.1411743164062	928.74853515625	-134.0418853759766	638.1763305664062	1069.342895507812	-294.3357849121094	879.337890625	833.5995483398438	-439.59716796875	697.822021484375	388.4954833984375	-383.0119018554688	812.3799438476562	790.3914184570312	-472.6433410644531	930.0169067382812	742.9100952148438	-431.9997253417969	505.9363708496094	56.94883346557617	-145.8358917236328	764.9571533203125	458.6328430175781	-419.2963562011719	857.84423828125	701.6801147460938	-455.2516784667969	774.4094848632812	779.4347534179688	-153.7169952392578	802.30615234375	120.7109146118164	-354.561767578125	700.9091796875	793.505126953125	-123.5207595825195	751.2341918945312	680.6970825195312	-163.0214233398438	674.59326171875	698.0348510742188	-139.8468017578125	940.2166137695312	574.9053344726562	-419.88037109375	658.5926513671875	526.8600463867188	-178.5157470703125	823.5529174804688	399.035400390625	-416.3330993652344	748.7691650390625	331.6885986328125	-408.9296569824219	566.025390625	359.4652709960938	-159.3485565185547	738.233154296875	141.1413726806641	-412.6983337402344	495.120849609375	398.1422119140625	-167.3608856201172	588.3623657226562	241.3478698730469	-320.792236328125	519.7373657226562	270.8520202636719	-168.2041931152344	450.7595825195312	309.9395141601562	-189.0029144287109	649.0973510742188	259.4528198242188	-398.113525390625	425.7814025878906	171.822265625	-166.6475524902344	575.663818359375	51.34091567993164	-227.3218688964844	346.0232849121094	154.4954376220703	-208.1348266601562	347.2241821289062	124.5965270996094	-239.4507751464844	343.4292907714844	129.7644500732422	-182.2283020019531	580.9880981445312	240.3701019287109	-373.9884033203125
